<?xml version="1.0" encoding="utf-8"?>
<!DOCTYPE svg PUBLIC "-//W3C//DTD SVG 1.1//EN" "http://www.w3.org/Graphics/SVG/1.1/DTD/svg11.dtd">
<!-- Created by Florian Lackner - http://www.florianlackner.at/ -->
<svg version="1.1" xmlns="http://www.w3.org/2000/svg" xmlns:xlink="http://www.w3.org/1999/xlink" x="0px" y="0px"
	 width="1187.349px" height="461.581px" viewBox="0 0 1187.349 461.581" enable-background="new 0 0 1187.349 461.581"
	 xml:space="preserve">
<g id="lettering">
	<g>
		<rect x="184.668" y="287.581" fill="none" width="997" height="125"/>
		<path fill="#575756" d="M249.385,394.74v-48.538c0-7.527-1.583-13-4.75-16.42c-3.167-3.418-8.079-5.129-14.733-5.129
			c-8.95,0-15.502,2.261-19.656,6.781c-4.155,4.521-6.231,11.854-6.231,21.997v41.309h-6.816V287.613h6.816v34.08l-0.344,9.57h0.482
			c2.799-4.498,6.334-7.756,10.603-9.776c4.269-2.019,9.57-3.029,15.904-3.029c16.982,0,25.474,9.111,25.474,27.333v48.951H249.385z
			"/>
		<path fill="#575756" d="M308.304,390.058c4.314,0,8.078-0.366,11.291-1.102v5.508c-3.305,1.102-7.115,1.652-11.429,1.652
			c-6.609,0-11.487-1.767-14.63-5.302c-3.144-3.533-4.716-9.087-4.716-16.661v-48.331h-11.084v-3.993l11.084-3.098l3.442-16.937
			h3.511v18.107h21.962v5.921h-21.962v47.367c0,5.738,1.009,9.983,3.029,12.737C300.822,388.681,303.989,390.058,308.304,390.058z"
			/>
		<path fill="#575756" d="M375.553,318.457c10.465,0,18.348,3.294,23.649,9.88c5.302,6.586,7.952,16.213,7.952,28.881
			c0,12.439-2.788,22.031-8.365,28.779c-5.576,6.746-13.414,10.12-23.511,10.12c-5.325,0-10.121-1.102-14.389-3.305
			s-7.642-5.323-10.121-9.363h-0.62l-1.928,11.291h-4.269V287.613h6.816v26.919c0,4.04-0.092,7.757-0.275,11.153l-0.207,5.852h0.482
			c2.845-4.498,6.276-7.802,10.292-9.914C365.077,319.513,369.908,318.457,375.553,318.457z M375.416,324.653
			c-8.813,0-15.124,2.525-18.933,7.573c-3.81,5.049-5.714,13.38-5.714,24.992v1.17c0,11.291,1.985,19.393,5.956,24.303
			c3.969,4.912,10.155,7.367,18.554,7.367c8.169,0,14.32-2.857,18.451-8.571c4.131-5.715,6.196-13.85,6.196-24.407
			C399.925,335.462,391.755,324.653,375.416,324.653z"/>
		<path fill="#575756" d="M442.871,394.74h-6.815V287.613h6.815V394.74z"/>
		<path fill="#575756" d="M521.549,394.74l-1.722-11.842h-0.551c-3.764,4.819-7.631,8.228-11.601,10.224
			c-3.971,1.997-8.664,2.995-14.079,2.995c-7.344,0-13.059-1.882-17.143-5.646c-4.086-3.764-6.128-8.973-6.128-15.628
			c0-7.298,3.04-12.966,9.122-17.005c6.081-4.039,14.882-6.173,26.403-6.403l14.251-0.413v-4.957c0-7.114-1.445-12.484-4.337-16.11
			c-2.892-3.625-7.551-5.439-13.976-5.439c-6.932,0-14.114,1.928-21.55,5.783l-2.548-5.921c8.216-3.855,16.34-5.783,24.373-5.783
			c8.215,0,14.354,2.134,18.416,6.403c4.063,4.269,6.094,10.924,6.094,19.966v49.777H521.549z M494.01,389.92
			c7.986,0,14.286-2.283,18.898-6.851c4.613-4.566,6.919-10.912,6.919-19.036v-7.367l-13.08,0.551
			c-10.512,0.505-18.004,2.146-22.479,4.922c-4.475,2.778-6.712,7.104-6.712,12.978c0,4.682,1.434,8.32,4.303,10.913
			C484.727,388.624,488.778,389.92,494.01,389.92z"/>
		<path fill="#575756" d="M573.652,354.533l9.156-11.429l22.995-24.51h18.657l-30.637,32.703l32.564,43.443h-19.002l-24.44-33.391
			l-8.882,7.298v26.093h-16.041V287.613h16.041v52.255l-0.826,14.665H573.652z"/>
		<path fill="#575756" d="M694.463,394.74l-3.236-10.603h-0.551c-3.672,4.637-7.366,7.791-11.084,9.467
			c-3.718,1.675-8.492,2.513-14.32,2.513c-7.481,0-13.322-2.019-17.521-6.059c-4.2-4.038-6.3-9.753-6.3-17.143
			c0-7.849,2.914-13.77,8.743-17.763s14.71-6.173,26.645-6.541l13.15-0.413v-4.062c0-4.865-1.137-8.502-3.408-10.913
			c-2.272-2.409-5.795-3.614-10.568-3.614c-3.901,0-7.643,0.574-11.223,1.721c-3.58,1.148-7.021,2.502-10.326,4.062l-5.232-11.566
			c4.131-2.157,8.65-3.797,13.563-4.923c4.911-1.124,9.546-1.687,13.907-1.687c9.684,0,16.993,2.112,21.928,6.334
			c4.934,4.223,7.401,10.855,7.401,19.897v51.292H694.463z M670.367,383.724c5.875,0,10.591-1.641,14.148-4.923
			c3.557-3.281,5.335-7.883,5.335-13.804v-6.609l-9.775,0.413c-7.62,0.275-13.162,1.549-16.627,3.821
			c-3.466,2.271-5.198,5.749-5.198,10.43c0,3.397,1.009,6.024,3.029,7.883C663.298,382.794,666.328,383.724,670.367,383.724z"/>
		<path fill="#575756" d="M735.827,298.422c0-2.892,0.792-5.117,2.375-6.678c1.584-1.56,3.844-2.341,6.782-2.341
			c2.845,0,5.06,0.781,6.644,2.341c1.583,1.561,2.375,3.787,2.375,6.678c0,2.754-0.792,4.922-2.375,6.506
			c-1.584,1.583-3.799,2.375-6.644,2.375c-2.938,0-5.198-0.792-6.782-2.375C736.619,303.344,735.827,301.176,735.827,298.422z
			 M752.97,394.74h-16.18v-76.146h16.18V394.74z"/>
		<path fill="#575756" d="M851.269,394.74h-16.248v-46.816c0-5.875-1.182-10.258-3.545-13.15c-2.364-2.892-6.117-4.337-11.257-4.337
			c-6.84,0-11.842,2.02-15.009,6.059c-3.167,4.04-4.75,10.809-4.75,20.31v37.935h-16.18v-76.146h12.668l2.271,9.983h0.826
			c2.295-3.625,5.554-6.425,9.777-8.399c4.222-1.973,8.903-2.96,14.045-2.96c18.267,0,27.4,9.294,27.4,27.883V394.74z"/>
		<path fill="#575756" d="M907.64,396.117c-9.5,0-16.913-3.442-22.237-10.327c-5.325-6.885-7.986-16.546-7.986-28.985
			c0-12.484,2.696-22.204,8.09-29.157c5.393-6.954,12.862-10.431,22.409-10.431c10.006,0,17.625,3.695,22.857,11.084h0.826
			c-0.78-5.461-1.17-9.776-1.17-12.943v-27.746h16.248V394.74h-12.668l-2.822-9.983h-0.758
			C925.242,392.331,917.646,396.117,907.64,396.117z M911.978,383.036c6.654,0,11.498-1.87,14.527-5.611
			c3.029-3.74,4.589-9.811,4.682-18.21v-2.272c0-9.592-1.562-16.408-4.682-20.448c-3.122-4.039-8.011-6.059-14.665-6.059
			c-5.691,0-10.075,2.307-13.149,6.919c-3.076,4.613-4.613,11.188-4.613,19.725c0,8.446,1.491,14.883,4.475,19.312
			C901.536,380.822,906.011,383.036,911.978,383.036z"/>
		<path fill="#575756" d="M1045.527,356.529c0,12.439-3.19,22.146-9.569,29.123c-6.38,6.978-15.262,10.465-26.644,10.465
			c-7.115,0-13.403-1.606-18.865-4.819s-9.662-7.825-12.599-13.838c-2.938-6.012-4.406-12.989-4.406-20.93
			c0-12.346,3.167-21.985,9.501-28.916c6.334-6.93,15.261-10.396,26.781-10.396c11.016,0,19.736,3.546,26.162,10.637
			C1042.314,334.946,1045.527,344.504,1045.527,356.529z M990.105,356.529c0,17.58,6.494,26.369,19.484,26.369
			c12.851,0,19.277-8.789,19.277-26.369c0-17.395-6.473-26.093-19.416-26.093c-6.793,0-11.716,2.25-14.768,6.747
			C991.63,341.682,990.105,348.13,990.105,356.529z"/>
		<path fill="#575756" d="M1110.918,317.217c3.259,0,5.944,0.23,8.056,0.688l-1.583,15.078c-2.296-0.551-4.682-0.826-7.16-0.826
			c-6.473,0-11.717,2.112-15.732,6.334c-4.017,4.223-6.023,9.708-6.023,16.455v39.794h-16.18v-76.146h12.668l2.135,13.425h0.826
			c2.523-4.544,5.817-8.146,9.879-10.809C1101.866,318.549,1106.237,317.217,1110.918,317.217z"/>
		<path fill="#575756" d="M1179.477,330.849h-18.59v63.891h-16.248v-63.891h-12.529v-7.573l12.529-4.957v-4.957
			c0-8.996,2.111-15.663,6.334-20c4.223-4.338,10.672-6.506,19.347-6.506c5.69,0,11.291,0.941,16.799,2.823l-4.269,12.255
			c-3.993-1.285-7.804-1.928-11.429-1.928c-3.673,0-6.346,1.136-8.021,3.408c-1.676,2.271-2.514,5.68-2.514,10.224v4.957h18.59
			V330.849z"/>
	</g>
	<g>
		<rect x="193.668" y="412.445" fill="none" width="995.795" height="38.636"/>
		<path fill="#656564" d="M197.34,412.448h3.467V445.9h20.398v2.958H197.34V412.448z"/>
		<path fill="#656564" d="M240.995,436.568c0.051,4.691,2.499,10.353,8.669,10.353c4.691,0,7.241-2.754,8.261-6.731h3.212
			c-1.377,5.966-4.844,9.434-11.474,9.434c-8.363,0-11.882-6.425-11.882-13.921c0-6.936,3.519-13.922,11.882-13.922
			c8.465,0,11.831,7.395,11.576,14.788H240.995z M258.028,433.866c-0.153-4.845-3.162-9.384-8.363-9.384
			c-5.252,0-8.159,4.59-8.669,9.384H258.028z"/>
		<path fill="#656564" d="M280.622,412.448h3.212v5.15h-3.212V412.448z M280.622,422.544h3.212v26.313h-3.212V422.544z"/>
		<path fill="#656564" d="M320.757,430.245c-0.153-3.978-3.212-5.763-6.884-5.763c-2.855,0-6.221,1.122-6.221,4.539
			c0,2.855,3.264,3.876,5.457,4.437l4.284,0.969c3.671,0.562,7.496,2.703,7.496,7.292c0,5.712-5.661,7.904-10.556,7.904
			c-6.119,0-10.301-2.855-10.811-9.281h3.212c0.255,4.335,3.468,6.579,7.751,6.579c3.008,0,7.19-1.326,7.19-4.998
			c0-3.06-2.855-4.079-5.762-4.793l-4.131-0.918c-4.181-1.122-7.343-2.55-7.343-7.037c0-5.354,5.253-7.395,9.893-7.395
			c5.252,0,9.434,2.754,9.638,8.465H320.757z"/>
		<path fill="#656564" d="M349.624,422.544h5.354v2.703h-5.354v17.746c0,2.091,0.306,3.314,2.601,3.468
			c0.918,0,1.836-0.052,2.754-0.153v2.754c-0.969,0-1.887,0.102-2.856,0.102c-4.283,0-5.762-1.428-5.711-5.915v-18.001h-4.589
			v-2.703h4.589v-7.904h3.213V422.544z"/>
		<path fill="#656564" d="M395.93,448.858h-2.958v-4.742h-0.102c-1.683,3.519-5.15,5.507-9.077,5.507
			c-6.629,0-9.23-3.875-9.23-9.995v-17.083h3.212v17.135c0.153,4.742,1.938,7.241,7.038,7.241c5.507,0,7.904-5.202,7.904-10.557
			v-13.819h3.212V448.858z"/>
		<path fill="#656564" d="M416.944,422.544h3.213v4.539h0.102c1.173-3.162,4.691-5.304,8.414-5.304
			c7.395,0,9.639,3.875,9.639,10.147v16.931h-3.213v-16.42c0-4.539-1.479-7.956-6.681-7.956c-5.1,0-8.159,3.876-8.261,9.026v15.35
			h-3.213V422.544z"/>
		<path fill="#656564" d="M481.608,446.716c-0.051,7.854-3.06,12.646-11.678,12.646c-5.252,0-10.453-2.346-10.912-7.955h3.212
			c0.714,3.876,4.131,5.252,7.7,5.252c5.916,0,8.466-3.519,8.466-9.943v-3.57h-0.103c-1.479,3.213-4.589,5.406-8.363,5.406
			c-8.414,0-11.882-6.018-11.882-13.514c0-7.241,4.284-13.259,11.882-13.259c3.825,0,7.089,2.396,8.363,5.304h0.103v-4.539h3.212
			V446.716z M478.396,435.395c0-5.15-2.397-10.913-8.466-10.913c-6.119,0-8.669,5.457-8.669,10.913
			c0,5.304,2.754,10.454,8.669,10.454C475.489,445.849,478.396,440.75,478.396,435.395z"/>
		<path fill="#656564" d="M531.897,422.544h2.958v4.437h0.152c1.684-3.161,4.437-5.201,8.618-5.201c3.468,0,6.579,1.683,7.548,5.15
			c1.581-3.468,4.896-5.15,8.363-5.15c5.762,0,8.72,3.009,8.72,9.229v17.849h-3.213v-17.695c0-4.335-1.632-6.681-6.221-6.681
			c-5.559,0-7.14,4.59-7.14,9.485v14.891h-3.213v-17.849c0.051-3.569-1.428-6.527-5.507-6.527c-5.559,0-7.803,4.182-7.854,9.689
			v14.687h-3.213V422.544z"/>
		<path fill="#656564" d="M589.424,412.448h3.213v5.15h-3.213V412.448z M589.424,422.544h3.213v26.313h-3.213V422.544z"/>
		<path fill="#656564" d="M618.901,422.544h5.354v2.703h-5.354v17.746c0,2.091,0.306,3.314,2.601,3.468
			c0.918,0,1.836-0.052,2.754-0.153v2.754c-0.969,0-1.887,0.102-2.855,0.102c-4.284,0-5.763-1.428-5.712-5.915v-18.001h-4.589
			v-2.703h4.589v-7.904h3.213V422.544z"/>
		<path fill="#656564" d="M673.573,412.448h5.1l12.596,31.923l12.545-31.923h5.1v36.41h-3.468v-31.464h-0.102L692.9,448.858h-3.264
			l-12.493-31.464h-0.103v31.464h-3.468V412.448z"/>
		<path fill="#656564" d="M732.426,436.568c0.051,4.691,2.499,10.353,8.669,10.353c4.692,0,7.241-2.754,8.262-6.731h3.213
			c-1.377,5.966-4.845,9.434-11.475,9.434c-8.362,0-11.882-6.425-11.882-13.921c0-6.936,3.52-13.922,11.882-13.922
			c8.466,0,11.831,7.395,11.576,14.788H732.426z M749.458,433.866c-0.152-4.845-3.161-9.384-8.363-9.384
			c-5.252,0-8.159,4.59-8.669,9.384H749.458z"/>
		<path fill="#656564" d="M771.952,422.544h3.213v4.539h0.102c1.173-3.162,4.691-5.304,8.414-5.304
			c7.395,0,9.639,3.875,9.639,10.147v16.931h-3.213v-16.42c0-4.539-1.479-7.956-6.681-7.956c-5.1,0-8.159,3.876-8.261,9.026v15.35
			h-3.213V422.544z"/>
		<path fill="#656564" d="M830.141,430.245c-0.153-3.978-3.213-5.763-6.885-5.763c-2.855,0-6.221,1.122-6.221,4.539
			c0,2.855,3.264,3.876,5.456,4.437l4.283,0.969c3.672,0.562,7.496,2.703,7.496,7.292c0,5.712-5.66,7.904-10.556,7.904
			c-6.119,0-10.301-2.855-10.811-9.281h3.213c0.255,4.335,3.467,6.579,7.751,6.579c3.009,0,7.19-1.326,7.19-4.998
			c0-3.06-2.856-4.079-5.763-4.793l-4.131-0.918c-4.182-1.122-7.343-2.55-7.343-7.037c0-5.354,5.252-7.395,9.893-7.395
			c5.253,0,9.435,2.754,9.639,8.465H830.141z"/>
		<path fill="#656564" d="M872.47,430.806c-0.867-3.927-3.264-6.324-7.445-6.324c-6.171,0-9.23,5.609-9.23,11.22
			c0,5.609,3.06,11.219,9.23,11.219c3.978,0,7.241-3.111,7.649-7.496h3.212c-0.866,6.323-4.997,10.198-10.861,10.198
			c-8.058,0-12.443-6.374-12.443-13.921c0-7.548,4.386-13.922,12.443-13.922c5.609,0,9.943,3.009,10.658,9.026H872.47z"/>
		<path fill="#656564" d="M895.319,412.448h3.213v14.636h0.102c1.173-3.162,4.691-5.304,8.414-5.304
			c7.395,0,9.639,3.875,9.639,10.147v16.931h-3.213v-16.42c0-4.539-1.479-7.956-6.681-7.956c-5.1,0-8.159,3.876-8.261,9.026v15.35
			h-3.213V412.448z"/>
		<path fill="#656564" d="M937.801,412.448h3.213v36.41h-3.213V412.448z"/>
		<path fill="#656564" d="M962.23,412.448h3.213v5.15h-3.213V412.448z M962.23,422.544h3.213v26.313h-3.213V422.544z"/>
		<path fill="#656564" d="M1005.17,430.806c-0.867-3.927-3.264-6.324-7.445-6.324c-6.171,0-9.23,5.609-9.23,11.22
			c0,5.609,3.06,11.219,9.23,11.219c3.978,0,7.241-3.111,7.649-7.496h3.212c-0.866,6.323-4.997,10.198-10.861,10.198
			c-8.058,0-12.443-6.374-12.443-13.921c0-7.548,4.386-13.922,12.443-13.922c5.609,0,9.943,3.009,10.658,9.026H1005.17z"/>
		<path fill="#656564" d="M1028.02,412.448h3.213v14.636h0.102c1.173-3.162,4.691-5.304,8.414-5.304
			c7.395,0,9.639,3.875,9.639,10.147v16.931h-3.213v-16.42c0-4.539-1.479-7.956-6.681-7.956c-5.1,0-8.159,3.876-8.261,9.026v15.35
			h-3.213V412.448z"/>
		<path fill="#656564" d="M1070.452,412.448h3.213v22.846l14.584-12.749h4.284l-11.219,9.74l11.983,16.573h-4.028l-10.403-14.329
			l-5.201,4.334v9.995h-3.213V412.448z"/>
		<path fill="#656564" d="M1112.832,436.568c0.051,4.691,2.499,10.353,8.669,10.353c4.692,0,7.241-2.754,8.262-6.731h3.213
			c-1.377,5.966-4.845,9.434-11.475,9.434c-8.362,0-11.882-6.425-11.882-13.921c0-6.936,3.52-13.922,11.882-13.922
			c8.466,0,11.831,7.395,11.576,14.788H1112.832z M1129.864,433.866c-0.152-4.845-3.161-9.384-8.363-9.384
			c-5.252,0-8.159,4.59-8.669,9.384H1129.864z"/>
		<path fill="#656564" d="M1152.458,412.448h3.213v5.15h-3.213V412.448z M1152.458,422.544h3.213v26.313h-3.213V422.544z"/>
		<path fill="#656564" d="M1181.936,422.544h5.354v2.703h-5.354v17.746c0,2.091,0.306,3.314,2.601,3.468
			c0.918,0,1.836-0.052,2.754-0.153v2.754c-0.969,0-1.887,0.102-2.855,0.102c-4.284,0-5.763-1.428-5.712-5.915v-18.001h-4.589
			v-2.703h4.589v-7.904h3.213V422.544z"/>
	</g>
</g>
<g id="tower">
	<g>
		<defs>
			<polygon id="SVGID_1_" points="1.943,448.859 82.944,3.858 163.944,448.859 			"/>
		</defs>
		<clipPath id="SVGID_2_">
			<use xlink:href="#SVGID_1_"  overflow="visible"/>
		</clipPath>
		<g clip-path="url(#SVGID_2_)">
			<path fill="none" stroke="#82378C" stroke-width="8" stroke-miterlimit="10" d="M1.943,444.914h162H1.943z"/>
			<path fill="none" stroke="#82378C" stroke-width="8" stroke-miterlimit="10" d="M1.943,421.914h162H1.943z"/>
			<path fill="none" stroke="#82378C" stroke-width="8" stroke-miterlimit="10" d="M1.943,398.914h162H1.943z"/>
			<path fill="none" stroke="#82378C" stroke-width="8" stroke-miterlimit="10" d="M1.943,375.914h162H1.943z"/>
			<path fill="none" stroke="#82378C" stroke-width="8" stroke-miterlimit="10" d="M1.943,352.914h162H1.943z"/>
			<path fill="none" stroke="#82378C" stroke-width="8" stroke-miterlimit="10" d="M1.943,329.914h162H1.943z"/>
			<path fill="none" stroke="#82378C" stroke-width="8" stroke-miterlimit="10" d="M1.943,306.914h162H1.943z"/>
			<path fill="none" stroke="#82378C" stroke-width="8" stroke-miterlimit="10" d="M1.943,283.914h162H1.943z"/>
			<path fill="none" stroke="#82378C" stroke-width="8" stroke-miterlimit="10" d="M1.943,260.914h162H1.943z"/>
			<path fill="none" stroke="#82378C" stroke-width="8" stroke-miterlimit="10" d="M1.943,237.914h162H1.943z"/>
			<path fill="none" stroke="#82378C" stroke-width="8" stroke-miterlimit="10" d="M1.943,214.914h162H1.943z"/>
			<path fill="none" stroke="#82378C" stroke-width="8" stroke-miterlimit="10" d="M1.943,191.914h162H1.943z"/>
			<path fill="none" stroke="#82378C" stroke-width="8" stroke-miterlimit="10" d="M1.943,168.914h162H1.943z"/>
			<path fill="none" stroke="#82378C" stroke-width="8" stroke-miterlimit="10" d="M1.943,145.914h162H1.943z"/>
			<path fill="none" stroke="#82378C" stroke-width="8" stroke-miterlimit="10" d="M1.943,122.914h162H1.943z"/>
			<path fill="none" stroke="#82378C" stroke-width="8" stroke-miterlimit="10" d="M1.943,99.914h162H1.943z"/>
			<path fill="none" stroke="#82378C" stroke-width="8" stroke-miterlimit="10" d="M1.943,76.914h162H1.943z"/>
			<path fill="none" stroke="#82378C" stroke-width="8" stroke-miterlimit="10" d="M1.943,53.914h162H1.943z"/>
			<path fill="none" stroke="#82378C" stroke-width="8" stroke-miterlimit="10" d="M1.943,30.914h162H1.943z"/>
			<path fill="none" stroke="#82378C" stroke-width="8" stroke-miterlimit="10" d="M1.943,7.914h162H1.943z"/>
		</g>
	</g>
</g>
</svg>
